<mxfile host="app.diagrams.net" modified="2022-08-17T09:00:14.174Z" agent="5.0 (Macintosh)" etag="V2oyCIBkOnabH4wJpIlx" version="20.0.4" type="github">
  <diagram id="C5RBs43oDa-KdzZeNtuy" name="Page-1">
    <mxGraphModel dx="2893" dy="2324" grid="1" gridSize="10" guides="1" tooltips="1" connect="1" arrows="1" fold="1" page="1" pageScale="1" pageWidth="827" pageHeight="1169" math="0" shadow="0">
      <root>
        <mxCell id="WIyWlLk6GJQsqaUBKTNV-0" />
        <mxCell id="WIyWlLk6GJQsqaUBKTNV-1" parent="WIyWlLk6GJQsqaUBKTNV-0" />
        <mxCell id="yLOeqn3ld4B0enp1eUYi-16" style="edgeStyle=orthogonalEdgeStyle;rounded=0;orthogonalLoop=1;jettySize=auto;html=1;exitX=1;exitY=0.5;exitDx=0;exitDy=0;" edge="1" parent="WIyWlLk6GJQsqaUBKTNV-1" source="WIyWlLk6GJQsqaUBKTNV-3" target="yLOeqn3ld4B0enp1eUYi-11">
          <mxGeometry relative="1" as="geometry" />
        </mxCell>
        <mxCell id="WIyWlLk6GJQsqaUBKTNV-3" value="&lt;b&gt;adjustAuthorization&lt;/b&gt;" style="rounded=1;whiteSpace=wrap;html=1;fontSize=12;glass=0;strokeWidth=1;shadow=0;fillColor=#f5f5f5;strokeColor=#666666;fontColor=#333333;" parent="WIyWlLk6GJQsqaUBKTNV-1" vertex="1">
          <mxGeometry x="-370" y="-90" width="165" height="40" as="geometry" />
        </mxCell>
        <mxCell id="yLOeqn3ld4B0enp1eUYi-22" style="edgeStyle=orthogonalEdgeStyle;rounded=0;orthogonalLoop=1;jettySize=auto;html=1;entryX=0.5;entryY=0;entryDx=0;entryDy=0;" edge="1" parent="WIyWlLk6GJQsqaUBKTNV-1" source="WIyWlLk6GJQsqaUBKTNV-7" target="yLOeqn3ld4B0enp1eUYi-21">
          <mxGeometry relative="1" as="geometry" />
        </mxCell>
        <mxCell id="WIyWlLk6GJQsqaUBKTNV-7" value="&lt;b&gt;callPayoneForCapture&lt;/b&gt;" style="rounded=1;whiteSpace=wrap;html=1;fontSize=12;glass=0;strokeWidth=1;shadow=0;fillColor=#f5f5f5;fontColor=#333333;strokeColor=#666666;" parent="WIyWlLk6GJQsqaUBKTNV-1" vertex="1">
          <mxGeometry x="-85" y="-90" width="160" height="40" as="geometry" />
        </mxCell>
        <mxCell id="yLOeqn3ld4B0enp1eUYi-54" style="edgeStyle=orthogonalEdgeStyle;rounded=0;orthogonalLoop=1;jettySize=auto;html=1;entryX=0.5;entryY=0;entryDx=0;entryDy=0;" edge="1" parent="WIyWlLk6GJQsqaUBKTNV-1" source="WIyWlLk6GJQsqaUBKTNV-11" target="yLOeqn3ld4B0enp1eUYi-53">
          <mxGeometry relative="1" as="geometry" />
        </mxCell>
        <mxCell id="WIyWlLk6GJQsqaUBKTNV-11" value="&lt;b&gt;notifyOlympError&lt;/b&gt;" style="rounded=1;whiteSpace=wrap;html=1;fontSize=12;glass=0;strokeWidth=1;shadow=0;fillColor=#f5f5f5;fontColor=#333333;strokeColor=#666666;" parent="WIyWlLk6GJQsqaUBKTNV-1" vertex="1">
          <mxGeometry x="-50" y="110" width="160" height="40" as="geometry" />
        </mxCell>
        <mxCell id="yLOeqn3ld4B0enp1eUYi-37" style="edgeStyle=orthogonalEdgeStyle;rounded=0;orthogonalLoop=1;jettySize=auto;html=1;entryX=0;entryY=0.5;entryDx=0;entryDy=0;" edge="1" parent="WIyWlLk6GJQsqaUBKTNV-1" source="WIyWlLk6GJQsqaUBKTNV-12" target="yLOeqn3ld4B0enp1eUYi-36">
          <mxGeometry relative="1" as="geometry">
            <Array as="points">
              <mxPoint x="420" y="110" />
              <mxPoint x="420" y="110" />
            </Array>
          </mxGeometry>
        </mxCell>
        <mxCell id="WIyWlLk6GJQsqaUBKTNV-12" value="&lt;b&gt;setOrderStatusCaptured&lt;/b&gt;" style="rounded=1;whiteSpace=wrap;html=1;fontSize=12;glass=0;strokeWidth=1;shadow=0;fillColor=#f5f5f5;fontColor=#333333;strokeColor=#666666;" parent="WIyWlLk6GJQsqaUBKTNV-1" vertex="1">
          <mxGeometry x="230" y="85" width="160" height="40" as="geometry" />
        </mxCell>
        <mxCell id="yLOeqn3ld4B0enp1eUYi-31" style="edgeStyle=orthogonalEdgeStyle;rounded=0;orthogonalLoop=1;jettySize=auto;html=1;entryX=0;entryY=0.5;entryDx=0;entryDy=0;" edge="1" parent="WIyWlLk6GJQsqaUBKTNV-1" source="yLOeqn3ld4B0enp1eUYi-5" target="yLOeqn3ld4B0enp1eUYi-26">
          <mxGeometry relative="1" as="geometry" />
        </mxCell>
        <mxCell id="yLOeqn3ld4B0enp1eUYi-5" value="&lt;b&gt;retryCapture&lt;/b&gt;" style="rounded=1;whiteSpace=wrap;html=1;fontSize=12;glass=0;strokeWidth=1;shadow=0;fillColor=#f5f5f5;fontColor=#333333;strokeColor=#666666;" vertex="1" parent="WIyWlLk6GJQsqaUBKTNV-1">
          <mxGeometry x="280" y="-80" width="160" height="40" as="geometry" />
        </mxCell>
        <mxCell id="yLOeqn3ld4B0enp1eUYi-44" style="edgeStyle=orthogonalEdgeStyle;rounded=0;orthogonalLoop=1;jettySize=auto;html=1;entryX=0.5;entryY=0;entryDx=0;entryDy=0;" edge="1" parent="WIyWlLk6GJQsqaUBKTNV-1" source="yLOeqn3ld4B0enp1eUYi-8" target="yLOeqn3ld4B0enp1eUYi-43">
          <mxGeometry relative="1" as="geometry" />
        </mxCell>
        <mxCell id="yLOeqn3ld4B0enp1eUYi-8" value="&lt;b&gt;notifyOlymp&lt;/b&gt;" style="rounded=1;whiteSpace=wrap;html=1;fontSize=12;glass=0;strokeWidth=1;shadow=0;fillColor=#f5f5f5;fontColor=#333333;strokeColor=#666666;" vertex="1" parent="WIyWlLk6GJQsqaUBKTNV-1">
          <mxGeometry x="630" y="90" width="160" height="40" as="geometry" />
        </mxCell>
        <mxCell id="yLOeqn3ld4B0enp1eUYi-17" style="edgeStyle=orthogonalEdgeStyle;rounded=0;orthogonalLoop=1;jettySize=auto;html=1;entryX=0;entryY=0.5;entryDx=0;entryDy=0;exitX=1;exitY=0.5;exitDx=0;exitDy=0;" edge="1" parent="WIyWlLk6GJQsqaUBKTNV-1" source="yLOeqn3ld4B0enp1eUYi-11" target="WIyWlLk6GJQsqaUBKTNV-7">
          <mxGeometry relative="1" as="geometry">
            <mxPoint x="-65" y="-50" as="targetPoint" />
          </mxGeometry>
        </mxCell>
        <mxCell id="yLOeqn3ld4B0enp1eUYi-18" style="edgeStyle=orthogonalEdgeStyle;rounded=0;orthogonalLoop=1;jettySize=auto;html=1;entryX=0;entryY=0.5;entryDx=0;entryDy=0;" edge="1" parent="WIyWlLk6GJQsqaUBKTNV-1" source="yLOeqn3ld4B0enp1eUYi-11">
          <mxGeometry relative="1" as="geometry">
            <mxPoint x="-50" y="130" as="targetPoint" />
            <Array as="points">
              <mxPoint x="-180" y="130" />
            </Array>
          </mxGeometry>
        </mxCell>
        <mxCell id="yLOeqn3ld4B0enp1eUYi-20" value="NOK" style="edgeLabel;html=1;align=center;verticalAlign=middle;resizable=0;points=[];" vertex="1" connectable="0" parent="yLOeqn3ld4B0enp1eUYi-18">
          <mxGeometry x="0.0571" y="3" relative="1" as="geometry">
            <mxPoint x="10" y="-9" as="offset" />
          </mxGeometry>
        </mxCell>
        <mxCell id="yLOeqn3ld4B0enp1eUYi-11" value="" style="rhombus;" vertex="1" parent="WIyWlLk6GJQsqaUBKTNV-1">
          <mxGeometry x="-215" width="70" height="50" as="geometry" />
        </mxCell>
        <mxCell id="yLOeqn3ld4B0enp1eUYi-12" value="fgfg" style="ellipse;html=1;shape=endState;fillColor=#000000;strokeColor=#000000;" vertex="1" parent="WIyWlLk6GJQsqaUBKTNV-1">
          <mxGeometry x="310" y="290" width="30" height="30" as="geometry" />
        </mxCell>
        <mxCell id="yLOeqn3ld4B0enp1eUYi-13" value="" style="ellipse;html=1;shape=endState;fillColor=#000000;strokeColor=#000000;" vertex="1" parent="WIyWlLk6GJQsqaUBKTNV-1">
          <mxGeometry x="-70" y="341" width="30" height="30" as="geometry" />
        </mxCell>
        <mxCell id="yLOeqn3ld4B0enp1eUYi-14" value="" style="ellipse;html=1;shape=endState;fillColor=#000000;strokeColor=#000000;" vertex="1" parent="WIyWlLk6GJQsqaUBKTNV-1">
          <mxGeometry x="770" y="301" width="30" height="30" as="geometry" />
        </mxCell>
        <mxCell id="yLOeqn3ld4B0enp1eUYi-19" value="OK" style="text;html=1;align=center;verticalAlign=middle;resizable=0;points=[];autosize=1;strokeColor=none;fillColor=none;" vertex="1" parent="WIyWlLk6GJQsqaUBKTNV-1">
          <mxGeometry x="-149" y="4" width="40" height="30" as="geometry" />
        </mxCell>
        <mxCell id="yLOeqn3ld4B0enp1eUYi-23" style="edgeStyle=orthogonalEdgeStyle;rounded=0;orthogonalLoop=1;jettySize=auto;html=1;entryX=0;entryY=0.5;entryDx=0;entryDy=0;exitX=0.5;exitY=1;exitDx=0;exitDy=0;" edge="1" parent="WIyWlLk6GJQsqaUBKTNV-1" source="yLOeqn3ld4B0enp1eUYi-21" target="WIyWlLk6GJQsqaUBKTNV-12">
          <mxGeometry relative="1" as="geometry" />
        </mxCell>
        <mxCell id="yLOeqn3ld4B0enp1eUYi-24" style="edgeStyle=orthogonalEdgeStyle;rounded=0;orthogonalLoop=1;jettySize=auto;html=1;entryX=0.5;entryY=0;entryDx=0;entryDy=0;exitX=0;exitY=0.5;exitDx=0;exitDy=0;" edge="1" parent="WIyWlLk6GJQsqaUBKTNV-1" source="yLOeqn3ld4B0enp1eUYi-21" target="WIyWlLk6GJQsqaUBKTNV-11">
          <mxGeometry relative="1" as="geometry" />
        </mxCell>
        <mxCell id="yLOeqn3ld4B0enp1eUYi-25" style="edgeStyle=orthogonalEdgeStyle;rounded=0;orthogonalLoop=1;jettySize=auto;html=1;exitX=1;exitY=0.5;exitDx=0;exitDy=0;entryX=0;entryY=0.5;entryDx=0;entryDy=0;" edge="1" parent="WIyWlLk6GJQsqaUBKTNV-1" source="yLOeqn3ld4B0enp1eUYi-21" target="yLOeqn3ld4B0enp1eUYi-5">
          <mxGeometry relative="1" as="geometry">
            <Array as="points">
              <mxPoint x="200" y="-60" />
            </Array>
          </mxGeometry>
        </mxCell>
        <mxCell id="yLOeqn3ld4B0enp1eUYi-21" value="" style="rhombus;" vertex="1" parent="WIyWlLk6GJQsqaUBKTNV-1">
          <mxGeometry x="130" y="-5" width="70" height="50" as="geometry" />
        </mxCell>
        <mxCell id="yLOeqn3ld4B0enp1eUYi-32" style="edgeStyle=orthogonalEdgeStyle;rounded=0;orthogonalLoop=1;jettySize=auto;html=1;entryX=0.5;entryY=0;entryDx=0;entryDy=0;exitX=0.5;exitY=0;exitDx=0;exitDy=0;" edge="1" parent="WIyWlLk6GJQsqaUBKTNV-1" source="yLOeqn3ld4B0enp1eUYi-26" target="WIyWlLk6GJQsqaUBKTNV-7">
          <mxGeometry relative="1" as="geometry">
            <Array as="points">
              <mxPoint x="575" y="-130" />
              <mxPoint x="-5" y="-130" />
            </Array>
          </mxGeometry>
        </mxCell>
        <mxCell id="yLOeqn3ld4B0enp1eUYi-35" style="edgeStyle=orthogonalEdgeStyle;rounded=0;orthogonalLoop=1;jettySize=auto;html=1;entryX=0.5;entryY=1;entryDx=0;entryDy=0;" edge="1" parent="WIyWlLk6GJQsqaUBKTNV-1" source="yLOeqn3ld4B0enp1eUYi-26" target="yLOeqn3ld4B0enp1eUYi-12">
          <mxGeometry relative="1" as="geometry">
            <Array as="points">
              <mxPoint x="970" y="-60" />
              <mxPoint x="970" y="410" />
              <mxPoint x="325" y="410" />
            </Array>
          </mxGeometry>
        </mxCell>
        <mxCell id="yLOeqn3ld4B0enp1eUYi-26" value="" style="rhombus;" vertex="1" parent="WIyWlLk6GJQsqaUBKTNV-1">
          <mxGeometry x="540" y="-85" width="70" height="50" as="geometry" />
        </mxCell>
        <mxCell id="yLOeqn3ld4B0enp1eUYi-27" value="NOK" style="text;html=1;align=center;verticalAlign=middle;resizable=0;points=[];autosize=1;strokeColor=none;fillColor=none;" vertex="1" parent="WIyWlLk6GJQsqaUBKTNV-1">
          <mxGeometry x="55" y="-5" width="50" height="30" as="geometry" />
        </mxCell>
        <mxCell id="yLOeqn3ld4B0enp1eUYi-28" value="OK" style="text;html=1;align=center;verticalAlign=middle;resizable=0;points=[];autosize=1;strokeColor=none;fillColor=none;" vertex="1" parent="WIyWlLk6GJQsqaUBKTNV-1">
          <mxGeometry x="160" y="50" width="40" height="30" as="geometry" />
        </mxCell>
        <mxCell id="yLOeqn3ld4B0enp1eUYi-29" value="AUTHORISATION EXPIRED" style="text;html=1;align=center;verticalAlign=middle;resizable=0;points=[];autosize=1;strokeColor=none;fillColor=none;" vertex="1" parent="WIyWlLk6GJQsqaUBKTNV-1">
          <mxGeometry x="190" y="-16" width="180" height="30" as="geometry" />
        </mxCell>
        <mxCell id="yLOeqn3ld4B0enp1eUYi-33" value="OK" style="text;html=1;align=center;verticalAlign=middle;resizable=0;points=[];autosize=1;strokeColor=none;fillColor=none;" vertex="1" parent="WIyWlLk6GJQsqaUBKTNV-1">
          <mxGeometry x="540" y="-120" width="40" height="30" as="geometry" />
        </mxCell>
        <mxCell id="yLOeqn3ld4B0enp1eUYi-34" value="NOK" style="text;html=1;align=center;verticalAlign=middle;resizable=0;points=[];autosize=1;strokeColor=none;fillColor=none;" vertex="1" parent="WIyWlLk6GJQsqaUBKTNV-1">
          <mxGeometry x="610" y="-65" width="50" height="30" as="geometry" />
        </mxCell>
        <mxCell id="yLOeqn3ld4B0enp1eUYi-39" style="edgeStyle=orthogonalEdgeStyle;rounded=0;orthogonalLoop=1;jettySize=auto;html=1;entryX=1;entryY=0.5;entryDx=0;entryDy=0;" edge="1" parent="WIyWlLk6GJQsqaUBKTNV-1" source="yLOeqn3ld4B0enp1eUYi-36" target="WIyWlLk6GJQsqaUBKTNV-11">
          <mxGeometry relative="1" as="geometry">
            <Array as="points">
              <mxPoint x="515" y="190" />
              <mxPoint x="200" y="190" />
              <mxPoint x="200" y="130" />
            </Array>
          </mxGeometry>
        </mxCell>
        <mxCell id="yLOeqn3ld4B0enp1eUYi-40" style="edgeStyle=orthogonalEdgeStyle;rounded=0;orthogonalLoop=1;jettySize=auto;html=1;entryX=0;entryY=0.5;entryDx=0;entryDy=0;" edge="1" parent="WIyWlLk6GJQsqaUBKTNV-1" source="yLOeqn3ld4B0enp1eUYi-36" target="yLOeqn3ld4B0enp1eUYi-8">
          <mxGeometry relative="1" as="geometry" />
        </mxCell>
        <mxCell id="yLOeqn3ld4B0enp1eUYi-36" value="" style="rhombus;" vertex="1" parent="WIyWlLk6GJQsqaUBKTNV-1">
          <mxGeometry x="480" y="85" width="70" height="50" as="geometry" />
        </mxCell>
        <mxCell id="yLOeqn3ld4B0enp1eUYi-41" value="OK" style="text;html=1;align=center;verticalAlign=middle;resizable=0;points=[];autosize=1;strokeColor=none;fillColor=none;" vertex="1" parent="WIyWlLk6GJQsqaUBKTNV-1">
          <mxGeometry x="570" y="85" width="40" height="30" as="geometry" />
        </mxCell>
        <mxCell id="yLOeqn3ld4B0enp1eUYi-42" value="NOK" style="text;html=1;align=center;verticalAlign=middle;resizable=0;points=[];autosize=1;strokeColor=none;fillColor=none;" vertex="1" parent="WIyWlLk6GJQsqaUBKTNV-1">
          <mxGeometry x="465" y="145" width="50" height="30" as="geometry" />
        </mxCell>
        <mxCell id="yLOeqn3ld4B0enp1eUYi-46" style="edgeStyle=orthogonalEdgeStyle;rounded=0;orthogonalLoop=1;jettySize=auto;html=1;entryX=0.5;entryY=0;entryDx=0;entryDy=0;" edge="1" parent="WIyWlLk6GJQsqaUBKTNV-1" source="yLOeqn3ld4B0enp1eUYi-43" target="yLOeqn3ld4B0enp1eUYi-12">
          <mxGeometry relative="1" as="geometry">
            <Array as="points">
              <mxPoint x="710" y="260" />
              <mxPoint x="325" y="260" />
            </Array>
          </mxGeometry>
        </mxCell>
        <mxCell id="yLOeqn3ld4B0enp1eUYi-52" style="edgeStyle=orthogonalEdgeStyle;rounded=0;orthogonalLoop=1;jettySize=auto;html=1;entryX=0.5;entryY=0;entryDx=0;entryDy=0;" edge="1" parent="WIyWlLk6GJQsqaUBKTNV-1" source="yLOeqn3ld4B0enp1eUYi-43" target="yLOeqn3ld4B0enp1eUYi-14">
          <mxGeometry relative="1" as="geometry" />
        </mxCell>
        <mxCell id="yLOeqn3ld4B0enp1eUYi-43" value="" style="rhombus;" vertex="1" parent="WIyWlLk6GJQsqaUBKTNV-1">
          <mxGeometry x="675" y="170" width="70" height="50" as="geometry" />
        </mxCell>
        <mxCell id="yLOeqn3ld4B0enp1eUYi-47" value="OK" style="text;html=1;align=center;verticalAlign=middle;resizable=0;points=[];autosize=1;strokeColor=none;fillColor=none;" vertex="1" parent="WIyWlLk6GJQsqaUBKTNV-1">
          <mxGeometry x="750" y="170" width="40" height="30" as="geometry" />
        </mxCell>
        <mxCell id="yLOeqn3ld4B0enp1eUYi-48" value="NOK" style="text;html=1;align=center;verticalAlign=middle;resizable=0;points=[];autosize=1;strokeColor=none;fillColor=none;" vertex="1" parent="WIyWlLk6GJQsqaUBKTNV-1">
          <mxGeometry x="625" y="220" width="50" height="30" as="geometry" />
        </mxCell>
        <mxCell id="yLOeqn3ld4B0enp1eUYi-49" value="&lt;div&gt;SUCCESS&lt;/div&gt;&lt;div&gt;&lt;br&gt;&lt;/div&gt;" style="text;html=1;align=center;verticalAlign=middle;resizable=0;points=[];autosize=1;strokeColor=none;fillColor=none;" vertex="1" parent="WIyWlLk6GJQsqaUBKTNV-1">
          <mxGeometry x="747" y="331" width="80" height="40" as="geometry" />
        </mxCell>
        <mxCell id="yLOeqn3ld4B0enp1eUYi-50" value="ERROR" style="text;html=1;align=center;verticalAlign=middle;resizable=0;points=[];autosize=1;strokeColor=none;fillColor=none;" vertex="1" parent="WIyWlLk6GJQsqaUBKTNV-1">
          <mxGeometry x="340" y="290" width="70" height="30" as="geometry" />
        </mxCell>
        <mxCell id="yLOeqn3ld4B0enp1eUYi-55" style="edgeStyle=orthogonalEdgeStyle;rounded=0;orthogonalLoop=1;jettySize=auto;html=1;entryX=0;entryY=0.5;entryDx=0;entryDy=0;exitX=0.5;exitY=1;exitDx=0;exitDy=0;" edge="1" parent="WIyWlLk6GJQsqaUBKTNV-1" source="yLOeqn3ld4B0enp1eUYi-53" target="yLOeqn3ld4B0enp1eUYi-12">
          <mxGeometry relative="1" as="geometry" />
        </mxCell>
        <mxCell id="yLOeqn3ld4B0enp1eUYi-56" style="edgeStyle=orthogonalEdgeStyle;rounded=0;orthogonalLoop=1;jettySize=auto;html=1;" edge="1" parent="WIyWlLk6GJQsqaUBKTNV-1" source="yLOeqn3ld4B0enp1eUYi-53">
          <mxGeometry relative="1" as="geometry">
            <mxPoint x="-55" y="340" as="targetPoint" />
          </mxGeometry>
        </mxCell>
        <mxCell id="yLOeqn3ld4B0enp1eUYi-53" value="" style="rhombus;" vertex="1" parent="WIyWlLk6GJQsqaUBKTNV-1">
          <mxGeometry x="-5" y="200" width="70" height="50" as="geometry" />
        </mxCell>
        <mxCell id="yLOeqn3ld4B0enp1eUYi-57" value="&lt;div&gt;&lt;b&gt;finishWithError&lt;/b&gt;&lt;/div&gt;&lt;div&gt;&lt;b&gt;&lt;br&gt;&lt;/b&gt;&lt;/div&gt;" style="text;html=1;align=center;verticalAlign=middle;resizable=0;points=[];autosize=1;strokeColor=none;fillColor=none;" vertex="1" parent="WIyWlLk6GJQsqaUBKTNV-1">
          <mxGeometry x="-105" y="370" width="110" height="40" as="geometry" />
        </mxCell>
        <mxCell id="yLOeqn3ld4B0enp1eUYi-59" style="edgeStyle=orthogonalEdgeStyle;rounded=0;orthogonalLoop=1;jettySize=auto;html=1;entryX=0;entryY=0.5;entryDx=0;entryDy=0;" edge="1" parent="WIyWlLk6GJQsqaUBKTNV-1" source="yLOeqn3ld4B0enp1eUYi-58" target="WIyWlLk6GJQsqaUBKTNV-3">
          <mxGeometry relative="1" as="geometry" />
        </mxCell>
        <mxCell id="yLOeqn3ld4B0enp1eUYi-58" value="" style="ellipse;fillColor=#000000;strokeColor=none;" vertex="1" parent="WIyWlLk6GJQsqaUBKTNV-1">
          <mxGeometry x="-460" y="-85" width="30" height="30" as="geometry" />
        </mxCell>
        <mxCell id="yLOeqn3ld4B0enp1eUYi-60" value="OK" style="text;html=1;align=center;verticalAlign=middle;resizable=0;points=[];autosize=1;strokeColor=none;fillColor=none;" vertex="1" parent="WIyWlLk6GJQsqaUBKTNV-1">
          <mxGeometry x="-40" y="195" width="40" height="30" as="geometry" />
        </mxCell>
        <mxCell id="yLOeqn3ld4B0enp1eUYi-61" value="NOK" style="text;html=1;align=center;verticalAlign=middle;resizable=0;points=[];autosize=1;strokeColor=none;fillColor=none;" vertex="1" parent="WIyWlLk6GJQsqaUBKTNV-1">
          <mxGeometry x="35" y="271" width="50" height="30" as="geometry" />
        </mxCell>
        <mxCell id="yLOeqn3ld4B0enp1eUYi-62" value="Everything was fine" style="shape=note;whiteSpace=wrap;html=1;backgroundOutline=1;darkOpacity=0.05;fillColor=#d5e8d4;strokeColor=#82b366;" vertex="1" parent="WIyWlLk6GJQsqaUBKTNV-1">
          <mxGeometry x="827" y="280" width="80" height="100" as="geometry" />
        </mxCell>
        <mxCell id="yLOeqn3ld4B0enp1eUYi-64" value="Something went wrong." style="shape=note;whiteSpace=wrap;html=1;backgroundOutline=1;darkOpacity=0.05;fillColor=#f8cecc;strokeColor=#b85450;" vertex="1" parent="WIyWlLk6GJQsqaUBKTNV-1">
          <mxGeometry x="410" y="280" width="80" height="100" as="geometry" />
        </mxCell>
        <mxCell id="yLOeqn3ld4B0enp1eUYi-65" value="Capture went wrong." style="shape=note;whiteSpace=wrap;html=1;backgroundOutline=1;darkOpacity=0.05;fillColor=#fff2cc;strokeColor=#d6b656;" vertex="1" parent="WIyWlLk6GJQsqaUBKTNV-1">
          <mxGeometry y="331" width="80" height="100" as="geometry" />
        </mxCell>
      </root>
    </mxGraphModel>
  </diagram>
</mxfile>
